<svg xmlns="http://www.w3.org/2000/svg" width="46.181" height="43" viewBox="0 0 46.181 43">
  <g id="japan-svgrepo-com" transform="translate(0 -1.998)">
    <g id="Groupe_1" data-name="Groupe 1" transform="translate(3.448 6.638)">
      <path id="Tracé_1" data-name="Tracé 1" d="M35.557,10.723a21.911,21.911,0,0,0-10.11-2.9s-9.456-.076-15.42,7.495Z" transform="translate(-5.491 -7.826)" fill="#fdc794"/>
      <path id="Tracé_2" data-name="Tracé 2" d="M43.915,27.072a22.045,22.045,0,0,0-3.968-9.436,1.592,1.592,0,0,1-.268.078L5.773,23.494a.34.34,0,0,1-.178-.028,25.916,25.916,0,0,0-.94,3.607,17.9,17.9,0,0,0,2.9,13.793c2.777,3.827,7.772,7.441,16.727,7.316,8.954.124,13.95-3.488,16.727-7.316A17.913,17.913,0,0,0,43.915,27.072Z" transform="translate(-4.33 -9.825)" fill="#fdc794"/>
    </g>
    <path id="Tracé_3" data-name="Tracé 3" d="M41.425,39.04c.631,2.635-2.193,7.981-6.981,9.128s-9.727-2.341-10.358-4.976,4.08-.1,8.868-1.246S40.793,36.405,41.425,39.04Z" transform="translate(-4.896 -7.38)" fill="#802d40"/>
    <path id="Tracé_4" data-name="Tracé 4" d="M35.988,28.311a.8.8,0,0,1-.582-1.341l3.651-3.9a.8.8,0,1,1,1.163,1.088l-3.651,3.9A.794.794,0,0,1,35.988,28.311Z" transform="translate(-7.171 -4.243)" fill="#5e5f62"/>
    <ellipse id="Ellipse_1" data-name="Ellipse 1" cx="3.583" cy="2.389" rx="3.583" ry="2.389" transform="translate(13.694 26.966) rotate(-17.331)" fill="#fff"/>
    <ellipse id="Ellipse_2" data-name="Ellipse 2" cx="3.583" cy="2.389" rx="3.583" ry="2.389" transform="translate(28.645 24.318) rotate(-17.331)" fill="#fff"/>
    <path id="Tracé_5" data-name="Tracé 5" d="M39.7,16.341,5.789,22.121c-.989.169-3.083-5.241,1.28-5.848l29.459-5.305a3.022,3.022,0,0,1,3.64,2.229l.338.944C40.855,15.12,40.854,16.144,39.7,16.341Z" transform="translate(-0.899 -1.814)" fill="#ff473f"/>
    <path id="Tracé_6" data-name="Tracé 6" d="M46.389,2A2.4,2.4,0,0,0,44,4.387V9.164c0,.033.008.063.01.1l.587-.106a2.932,2.932,0,0,1,3.432,1.737,2.379,2.379,0,0,0,.749-1.726V4.387A2.4,2.4,0,0,0,46.389,2Z" transform="translate(-8.966 0)" fill="#c4332d"/>
    <path id="Tracé_7" data-name="Tracé 7" d="M53.672,13H49.293a2,2,0,0,0-.393.04,4.876,4.876,0,0,1,.252.586l.338.944c.347.979.346,2-.812,2.2l-.193.033a1.966,1.966,0,0,0,.809.177h4.379a1.99,1.99,0,1,0,0-3.98Z" transform="translate(-9.88 -2.242)" fill="#c4332d"/>
    <path id="Tracé_8" data-name="Tracé 8" d="M3.582,30.984a1.81,1.81,0,0,0-1.241-.547C1.048,30.437,0,32.014,0,33.959s1.048,3.522,2.34,3.522a1.913,1.913,0,0,0,1.442-.768A18.819,18.819,0,0,1,3.582,30.984Z" transform="translate(0 -5.795)" fill="#f9a671"/>
    <path id="Tracé_9" data-name="Tracé 9" d="M56.783,26.548c-.448-1.893-1.831-3.184-3.089-2.884a1.761,1.761,0,0,0-.975.681,25.75,25.75,0,0,1,1.057,3.947,19.511,19.511,0,0,1,.261,2.008,1.787,1.787,0,0,0,1.28.218C56.575,30.218,57.231,28.44,56.783,26.548Z" transform="translate(-10.743 -4.406)" fill="#f9a671"/>
    <path id="Tracé_10" data-name="Tracé 10" d="M25.274,30.66a.791.791,0,0,1-.377-.1l-4.7-2.535a.8.8,0,0,1,.756-1.4l4.7,2.535a.8.8,0,0,1-.378,1.5Z" transform="translate(-4.03 -4.999)" fill="#5e5f62"/>
    <path id="Tracé_11" data-name="Tracé 11" d="M23.576,35.633a.787.787,0,0,1-.8-.8.8.8,0,0,1,.23-.565.824.824,0,0,1,1.123,0,.808.808,0,0,1,.24.565.781.781,0,0,1-.24.565A.77.77,0,0,1,23.576,35.633Z" transform="translate(-4.642 -6.532)" fill="#7f5b53"/>
    <g id="Groupe_2" data-name="Groupe 2" transform="translate(33.266 24.923)">
      <line id="Ligne_1" data-name="Ligne 1" transform="translate(0.794 0.787)" fill="#7f5b53"/>
      <path id="Tracé_12" data-name="Tracé 12" d="M42.576,32.372a.791.791,0,0,1-.566-.23.81.81,0,0,1,0-1.131.825.825,0,0,1,1.123,0,.811.811,0,0,1,.24.565.787.787,0,0,1-.8.8Z" transform="translate(-41.78 -30.79)" fill="#7f5b53"/>
    </g>
    <path id="Tracé_13" data-name="Tracé 13" d="M35.858,49.644a9.064,9.064,0,0,0,4.456-2.674c-.439-1.3-2.73-1.877-5.235-1.277-2.581.618-4.4,2.245-4.071,3.634l.016.062A8.955,8.955,0,0,0,35.858,49.644Z" transform="translate(-6.31 -8.856)" fill="#e64c3c"/>
  </g>
</svg>
