<svg xmlns="http://www.w3.org/2000/svg" width="15.419" height="19.85" viewBox="0 0 15.419 19.85">
  <path id="search-svgrepo-com" d="M24.538.96a7.16,7.16,0,0,0-2.621,9.78,7.153,7.153,0,0,0,8.57,3.176l3.221,5.578L36,18.169l-3.22-5.577a7.161,7.161,0,0,0,1.534-9.011A7.157,7.157,0,0,0,24.538.96Zm7.484,3.946a4.509,4.509,0,0,1-3.9,6.763,4.526,4.526,0,0,1-3.909-2.255,4.509,4.509,0,0,1,3.9-6.763A4.526,4.526,0,0,1,32.022,4.907Z" transform="translate(-20.79 0.15)" fill="#ffe4e3" stroke="#ff473f" stroke-width="0.3"/>
</svg>
