<svg xmlns="http://www.w3.org/2000/svg" width="39.529" height="36.571" viewBox="0 0 39.529 36.571">
  <g id="heart" data-name="heart" transform="translate(0 -16.811)">
    <path d="M0,29.645c.129-.675.234-1.356.393-2.024a11.046,11.046,0,0,1,2.422-4.547A11.993,11.993,0,0,1,8.329,19.5a8.8,8.8,0,0,1,2.344-.321,11.793,11.793,0,0,1,4.89.579,8.27,8.27,0,0,1,3.61,2.081,14.411,14.411,0,0,1,5.282-4.087,16.512,16.512,0,0,1,3.4-.826,6.99,6.99,0,0,1,3.542.281A8.478,8.478,0,0,1,35.2,19.5a18.462,18.462,0,0,1,3.33,4.871,11.716,11.716,0,0,1,.962,5.775c-.278,3.713-1.84,6.947-3.641,10.1a37.937,37.937,0,0,1-4.193,5.66c-1.724,2.028-3.488,4.023-5.239,6.029a7.086,7.086,0,0,1-1.037,1.092,2.042,2.042,0,0,1-2.087.132c-1.927-.814-3.854-1.632-5.752-2.511a45.761,45.761,0,0,1-8.623-5.16A24.51,24.51,0,0,1,2.4,38.856a16.173,16.173,0,0,1-2.186-5.4C.119,32.908,0,30.363,0,29.645Z" fill="#ff473f"/>
    <path d="M300.312,135.46a2.115,2.115,0,0,1-2.155-1.733,2.011,2.011,0,0,1,1.319-2.379,2.645,2.645,0,0,1,3.655,1.712,1.543,1.543,0,0,1-.527,1.436A3.089,3.089,0,0,1,300.312,135.46Z" transform="translate(-271.874 -104.244)"/>
    <path d="M115.607,167.083a2.723,2.723,0,0,1,2.2,1.118,1.938,1.938,0,0,1-1.194,3.065,2.629,2.629,0,0,1-2.721-.865,1.98,1.98,0,0,1-.37-2.126,2.077,2.077,0,0,1,1.844-1.19A1.5,1.5,0,0,1,115.607,167.083Z" transform="translate(-103.386 -137.047)"/>
    <path d="M2.992,4.263A2.894,2.894,0,0,1,0,1.654C-.006,1.283.036.944.48.881c.392-.055.576.211.7.538a2.082,2.082,0,0,0,1.1,1.347A1.673,1.673,0,0,0,4.062,2.48,1.321,1.321,0,0,0,4.477.943a.665.665,0,0,1,.42-.9A.761.761,0,0,1,5.85.586c.633,1.743-.5,3.047-2,3.535A5.6,5.6,0,0,1,2.992,4.263Z" transform="translate(17.386 29.056) rotate(-4)"/>
  </g>
</svg>
