<?xml version="1.0" encoding="iso-8859-1"?>
<!-- Generator: Adobe Illustrator 16.0.0, SVG Export Plug-In . SVG Version: 6.00 Build 0)  -->
<!DOCTYPE svg PUBLIC "-//W3C//DTD SVG 1.1//EN" "http://www.w3.org/Graphics/SVG/1.1/DTD/svg11.dtd">
<svg version="1.1" id="Capa_1" xmlns="http://www.w3.org/2000/svg" xmlns:xlink="http://www.w3.org/1999/xlink" x="0px" y="0px"
	 width="31.512px" height="31.512px" viewBox="0 0 31.512 31.512" style="enable-background:new 0 0 31.512 31.512;"
	 xml:space="preserve">
<g>
	<g>
		<path d="M31.378,19.154c-0.645-4.261-4.347-10.375-6.431-11.63l-0.512-0.306h-3.357c-1.774-2.437-3.688-3.637-5.76-3.561
			c-2.797,0.102-4.783,2.602-5.445,3.561h-2.8L6.347,7.668c-2.116,1.524-5.59,7.369-6.213,11.485
			c-0.61,4.029,1.006,5.717,2.027,6.361c0.705,0.446,1.54,0.67,2.42,0.668c0.577,0,1.174-0.096,1.766-0.283
			c0,1.082,0.877,1.959,1.958,1.959h14.684c1.081,0,1.958-0.877,1.958-1.959v-0.072c0.662,0.236,1.335,0.355,1.981,0.355
			c0.881,0,1.718-0.223,2.42-0.668C30.368,24.871,31.988,23.184,31.378,19.154z M15.4,5.721c0.993-0.024,1.991,0.474,2.991,1.496
			h-5.846C13.258,6.496,14.258,5.759,15.4,5.721z M3.822,22.9c-0.64-0.405-0.872-1.633-0.622-3.282
			c0.406-2.691,1.893-5.371,3.147-7.215v10.091C5.429,23.097,4.396,23.264,3.822,22.9z M22.343,24.915
			c0.035,0.151,0,0.312-0.099,0.436c-0.098,0.122-0.243,0.193-0.401,0.193h-0.578c-0.145,0-0.28-0.064-0.375-0.175
			c-0.092-0.111-0.131-0.26-0.104-0.4l0.27-1.483c-0.478-0.166-0.82-0.625-0.82-1.159c0-0.46,0.219-0.86,0.627-1.07v-9.471H10.435
			v10.44c0,0.285-0.226,0.519-0.511,0.519s-0.512-0.231-0.512-0.519V11.258c0-0.286,0.237-0.5,0.523-0.5h11.438
			c0.286,0,0.509,0.215,0.509,0.5v9.914c0.479,0.174,0.799,0.622,0.799,1.146c0,0.482-0.274,0.906-0.684,1.106L22.343,24.915z
			 M27.688,22.9c-0.579,0.367-1.63,0.192-2.552-0.424c-0.063-0.041-0.125-0.078-0.191-0.108v-10.28
			c1.295,1.843,2.937,4.681,3.365,7.53C28.562,21.268,28.329,22.494,27.688,22.9z"/>
	</g>
</g>
<g>
</g>
<g>
</g>
<g>
</g>
<g>
</g>
<g>
</g>
<g>
</g>
<g>
</g>
<g>
</g>
<g>
</g>
<g>
</g>
<g>
</g>
<g>
</g>
<g>
</g>
<g>
</g>
<g>
</g>
</svg>
