<?xml version="1.0" encoding="iso-8859-1"?>
<!-- Generator: Adobe Illustrator 18.0.0, SVG Export Plug-In . SVG Version: 6.00 Build 0)  -->
<!DOCTYPE svg PUBLIC "-//W3C//DTD SVG 1.1//EN" "http://www.w3.org/Graphics/SVG/1.1/DTD/svg11.dtd">
<svg version="1.1" id="Capa_1" xmlns="http://www.w3.org/2000/svg" xmlns:xlink="http://www.w3.org/1999/xlink" x="0px" y="0px"
	 viewBox="0 0 60.003 60.003" style="enable-background:new 0 0 60.003 60.003;" xml:space="preserve">
<g>
	<path d="M59.796,26.569c-0.61-2.576-2.456-4.446-4.389-4.446c-0.235,0-0.469,0.027-0.696,0.082
		c-0.186,0.044-0.366,0.112-0.541,0.194c-2.333-5.721-5.968-9.411-9.711-11.782l1.335-2.669c0.247-0.494,0.047-1.095-0.447-1.342
		c-0.496-0.246-1.094-0.046-1.342,0.447l-1.279,2.558c-0.619-0.328-1.236-0.629-1.844-0.895l0.967-2.9
		c0.175-0.524-0.108-1.091-0.632-1.265c-0.525-0.176-1.091,0.108-1.265,0.632l-0.933,2.8c-0.694-0.246-1.367-0.456-2.014-0.634
		l0.845-2.534c0.175-0.524-0.108-1.091-0.632-1.265c-0.527-0.177-1.09,0.108-1.265,0.632L35.053,6.88
		c-1.267-0.26-2.344-0.396-3.153-0.468V4.5c0-0.553-0.448-1-1-1s-1,0.447-1,1v1.841c-0.527,0.022-1.444,0.085-2.635,0.264
		l-0.378-2.269c-0.091-0.545-0.604-0.922-1.151-0.822c-0.544,0.091-0.913,0.606-0.822,1.15l0.385,2.308
		c-1.076,0.237-2.263,0.56-3.519,1.004l-0.931-2.792c-0.175-0.523-0.74-0.808-1.265-0.632c-0.524,0.174-0.807,0.74-0.632,1.265
		l0.964,2.892c-0.866,0.377-1.747,0.821-2.629,1.327l-1.492-2.983c-0.247-0.493-0.847-0.693-1.342-0.447
		c-0.494,0.247-0.694,0.848-0.447,1.342l1.576,3.152c-0.885,0.605-1.756,1.295-2.604,2.064l-2.37-2.37
		c-0.391-0.391-1.023-0.391-1.414,0s-0.391,1.023,0,1.414l2.358,2.358C8.495,17.84,5.939,22.41,4.755,28.808
		c-0.016,0.083-0.021,0.167-0.035,0.251c-0.256-0.07-0.515-0.119-0.78-0.119C1.73,28.94,0,31.322,0,34.363s1.73,5.424,3.939,5.424
		c0.406,0,0.803-0.103,1.185-0.27c0.507,1.933,1.249,3.783,2.229,5.49l0.153-0.442c0.539-2.148,2.397-4.052,4.71-4.767
		c2.164-0.667,4.411-0.165,6.164,1.385c2.807,2.481,8.432,3.737,13.994,3.118c4.807-0.533,8.616-2.294,10.451-4.832
		c1.581-2.186,4.115-3.168,6.772-2.632c2.604,0.526,4.707,2.388,5.253,4.641l0.101,0.298c1.052-2.802,1.55-5.85,1.48-8.953
		c0.037,0.001,0.074,0.015,0.111,0.015c0.227,0,0.453-0.026,0.672-0.079C59.363,32.246,60.497,29.527,59.796,26.569z M4.674,37.489
		c-0.206,0.166-0.456,0.298-0.734,0.298C3.022,37.787,2,36.381,2,34.363s1.022-3.424,1.939-3.424c0.168,0,0.337,0.047,0.506,0.139
		c-0.003,0.027-0.002,0.054-0.004,0.082c-0.052,0.573-0.082,1.146-0.094,1.716c-0.004,0.214,0.001,0.427,0.002,0.64
		c0.002,0.46,0.015,0.919,0.042,1.376c0.011,0.182,0.022,0.363,0.037,0.544c0.048,0.581,0.114,1.159,0.203,1.733
		c0.007,0.046,0.011,0.093,0.019,0.139C4.659,37.368,4.664,37.429,4.674,37.489z M19.21,31.401c-0.402,0.07-0.811,0.105-1.216,0.105
		c-3.402,0-6.299-2.436-6.888-5.791c-0.667-3.802,1.883-7.438,5.685-8.105c0.402-0.07,0.811-0.105,1.216-0.105
		c3.402,0,6.299,2.436,6.888,5.791C25.562,27.098,23.012,30.733,19.21,31.401z M31,40.505c-3.309,0-6-2.691-6-6s2.691-6,6-6
		s6,2.691,6,6S34.309,40.505,31,40.505z M40.984,38.505c-1.127,0.018-2.065-0.889-2.083-2.016c-0.018-1.127,1.967-4.147,1.982-4.132
		c0,0,2.098,2.938,2.117,4.065C43.018,37.549,42.111,38.486,40.984,38.505z M46.731,27.524c-1.31,1.866-3.454,2.98-5.736,2.98
		c-1.442,0-2.831-0.439-4.015-1.271c-1.531-1.073-2.552-2.679-2.875-4.521c-0.323-1.842,0.09-3.699,1.164-5.229
		c1.31-1.866,3.454-2.98,5.736-2.98c1.442,0,2.831,0.439,4.015,1.271c1.531,1.073,2.552,2.679,2.875,4.521
		C48.218,24.137,47.805,25.994,46.731,27.524z M56.751,30.814c-0.137,0.033-0.282,0.031-0.436-0.001
		c-0.003-0.033-0.01-0.064-0.014-0.098c-0.068-0.636-0.154-1.272-0.272-1.907c-0.144-0.778-0.313-1.523-0.496-2.249
		c-0.013-0.05-0.028-0.1-0.041-0.15c-0.189-0.734-0.399-1.437-0.624-2.118c0.1-0.068,0.203-0.115,0.307-0.141
		c0.903-0.21,2.204,0.896,2.674,2.88C58.315,28.994,57.644,30.601,56.751,30.814z"/>
	<path d="M19.504,27.288c-0.544,0.095-1.062-0.268-1.158-0.812c-0.095-0.544,0.268-1.062,0.812-1.158
		c0.544-0.095,1.062,0.268,1.158,0.812C20.412,26.674,20.048,27.192,19.504,27.288z"/>
	<path d="M31,30.505c-2.206,0-4,1.794-4,4s1.794,4,4,4s4-1.794,4-4S33.206,30.505,31,30.505z"/>
	<path d="M49.202,38.799c-0.899-0.185-3.16-0.366-4.755,1.843c-2.166,2.994-6.485,5.053-11.852,5.647
		c-6.188,0.688-12.285-0.73-15.539-3.607c-1.234-1.091-2.744-1.436-4.248-0.972c-1.635,0.505-2.996,1.883-3.386,3.428l-0.684,1.974
		c3.226,4.337,9.474,9.393,21.093,9.393l0.548-0.004l0.576,0.004c11.808,0,18.076-5.224,21.255-9.605
		c0.57-0.786,1.078-1.615,1.537-2.473l-0.831-2.446C52.567,40.479,51.041,39.17,49.202,38.799z M49.741,44.2
		C45.1,49.326,37.6,52.51,30.133,52.51c-5.449,0-10.88-1.695-15.17-5.568c-0.41-0.37-0.442-1.002-0.072-1.412
		c0.369-0.41,1.002-0.443,1.412-0.072c7.689,6.941,22.989,7.304,31.957-2.599c0.371-0.41,1.003-0.442,1.413-0.07
		C50.081,43.159,50.112,43.791,49.741,44.2z"/>
	<path d="M39.608,23.749c-0.317,0.452-0.941,0.562-1.393,0.244c-0.452-0.317-0.562-0.941-0.244-1.393
		c0.317-0.452,0.941-0.562,1.393-0.244C39.815,22.673,39.925,23.297,39.608,23.749z"/>
</g>
<g>
</g>
<g>
</g>
<g>
</g>
<g>
</g>
<g>
</g>
<g>
</g>
<g>
</g>
<g>
</g>
<g>
</g>
<g>
</g>
<g>
</g>
<g>
</g>
<g>
</g>
<g>
</g>
<g>
</g>
</svg>
