<?xml version="1.0" encoding="iso-8859-1"?>
<!-- Generator: Adobe Illustrator 19.0.0, SVG Export Plug-In . SVG Version: 6.00 Build 0)  -->
<svg version="1.1" id="Layer_1" xmlns="http://www.w3.org/2000/svg" xmlns:xlink="http://www.w3.org/1999/xlink" x="0px" y="0px"
	 viewBox="0 0 512.001 512.001" style="enable-background:new 0 0 512.001 512.001;" xml:space="preserve">
<g>
	<g>
		<path d="M440.661,71.568c-0.062,0-0.129,0-0.191,0c0-0.076,0.001-0.151,0.001-0.226c0-39.432-31.918-71.33-71.338-71.33
			c-58.781,0-92.636,67.753-56.65,114.697L114.71,312.482c-46.365-35.545-114.7-2.816-114.7,56.653
			c0,39.594,32.055,71.303,71.33,71.301c0.062,0,0.129,0,0.191,0c0,0.076-0.001,0.151-0.001,0.226
			c0,39.432,31.918,71.33,71.338,71.33c59.26,0,92.356-68.118,56.65-114.696l197.773-197.773c46.871,35.933,114.7,2.2,114.7-56.653
			C511.991,103.276,479.939,71.568,440.661,71.568z"/>
	</g>
</g>
<g>
	<g>
		<path d="M231.54,146.73l-32.021-32.019c37.163-48.462-0.329-119.514-62.65-114.455c-36.05,2.927-65.338,33.201-65.338,71.086
			c0,0.076,0,0.151,0,0.227c-0.062,0-0.129,0-0.191,0c-39.879,0-71.179,32.305-71.328,71.016
			c-0.231,59.384,68.005,92.728,114.697,56.933l32.022,32.021c2.702,2.702,7.082,2.702,9.784,0l75.024-75.024
			C234.242,153.812,234.242,149.433,231.54,146.73z"/>
	</g>
</g>
<g>
	<g>
		<path d="M397.292,312.484l-32.022-32.021c-2.702-2.702-7.082-2.702-9.784,0l-75.024,75.024c-2.702,2.702-2.702,7.082,0,9.784
			l32.021,32.021c-37.557,48.976,0.941,119.464,62.648,114.455c36.052-2.927,65.34-33.201,65.34-71.086c0-0.076,0-0.151,0-0.227
			c0.062,0,0.129,0,0.191,0c39.907,0,71.183-32.336,71.328-71.023C512.212,310.395,444.232,276.501,397.292,312.484z"/>
	</g>
</g>
<g>
</g>
<g>
</g>
<g>
</g>
<g>
</g>
<g>
</g>
<g>
</g>
<g>
</g>
<g>
</g>
<g>
</g>
<g>
</g>
<g>
</g>
<g>
</g>
<g>
</g>
<g>
</g>
<g>
</g>
</svg>
